<svg xmlns="http://www.w3.org/2000/svg" viewBox="0 0 12.01 12.01"><title>edit</title><g id="Layer_2" data-name="Layer 2"><g id="text"><path d="M6.66,2.34a.33.33,0,0,1,.22-.09.21.21,0,0,1,.18.09L9.66,5a.19.19,0,0,1,.1.18.26.26,0,0,1-.1.21L3.52,11.48.66,12a.54.54,0,0,1-.49-.16.55.55,0,0,1-.16-.5L.52,8.48ZM2.07,9.94V8.81H1.23L1,10.31l.75.75,1.5-.28V9.94Zm.84-2a.36.36,0,0,0,.24.09A.32.32,0,0,0,3.38,8L7,4.36a.3.3,0,0,0,.1-.24A.29.29,0,0,0,7,3.89a.32.32,0,0,0-.23-.09.34.34,0,0,0-.24.09L2.91,7.5a.32.32,0,0,0-.09.23A.32.32,0,0,0,2.91,8Zm8.77-4.64a1.09,1.09,0,0,0,.33-.8,1.09,1.09,0,0,0-.33-.8L10.27.33A1.06,1.06,0,0,0,9.48,0a1.08,1.08,0,0,0-.8.33L7.6,1.41a.29.29,0,0,0-.09.21.2.2,0,0,0,.09.18l2.6,2.61a.23.23,0,0,0,.19.09.29.29,0,0,0,.21-.09Z"/></g></g></svg>
